<?xml version="1.0" standalone="no"?>
<!DOCTYPE svg PUBLIC "-//W3C//DTD SVG 20010904//EN"
 "http://www.w3.org/TR/2001/REC-SVG-20010904/DTD/svg10.dtd">
<svg version="1.0" xmlns="http://www.w3.org/2000/svg"
 width="512.000000pt" height="512.000000pt" viewBox="0 0 512.000000 512.000000"
 preserveAspectRatio="xMidYMid meet">
<metadata>
Created by potrace 1.11, written by Peter Selinger 2001-2013
</metadata>
<g transform="translate(0.000000,512.000000) scale(0.100000,-0.100000)"
fill="#000000" stroke="none">
<path d="M2427 4804 c-1 -1 -36 -5 -78 -8 -42 -4 -87 -9 -100 -11 -13 -3 -39
-7 -59 -10 -20 -3 -47 -8 -60 -11 -14 -3 -36 -7 -50 -10 -69 -13 -226 -60
-317 -94 -99 -38 -299 -133 -352 -169 -14 -10 -53 -35 -86 -56 -64 -42 -157
-111 -215 -160 -86 -73 -271 -267 -329 -345 -34 -47 -68 -92 -74 -100 -74 -94
-239 -422 -272 -540 -3 -8 -16 -53 -30 -100 -40 -131 -60 -231 -81 -410 -9
-72 -12 -420 -3 -420 3 0 6 -17 6 -37 0 -21 4 -56 8 -78 3 -22 8 -53 10 -70 2
-16 7 -41 10 -55 16 -65 18 -77 19 -100 0 -14 4 -27 8 -30 4 -3 9 -17 10 -30
2 -14 7 -28 11 -31 5 -3 9 -22 10 -41 1 -20 6 -33 11 -30 5 3 7 -2 3 -11 -3
-10 -2 -17 3 -17 5 0 12 -12 16 -27 6 -31 11 -44 44 -118 13 -27 23 -56 23
-62 0 -7 5 -13 10 -13 5 0 7 -9 4 -20 -3 -11 -1 -18 4 -15 4 3 18 -16 30 -42
12 -26 28 -56 36 -65 8 -9 12 -22 8 -27 -3 -6 -2 -11 3 -11 12 0 65 -88 65
-107 0 -6 3 -11 6 -10 3 1 7 -2 8 -6 1 -5 11 -17 23 -27 13 -11 19 -24 14 -31
-4 -8 -3 -9 5 -5 6 4 14 0 18 -11 4 -10 14 -23 22 -30 9 -7 13 -13 9 -13 -4 0
6 -13 22 -29 17 -15 30 -31 30 -36 0 -4 13 -19 30 -35 16 -15 26 -30 23 -34
-3 -3 1 -6 9 -6 17 0 32 -26 23 -40 -3 -4 3 -7 13 -6 10 0 16 -6 16 -16 -1
-10 2 -15 8 -12 12 8 78 -57 71 -70 -3 -5 -1 -6 5 -2 6 4 17 -2 24 -14 7 -11
16 -20 21 -20 7 0 19 -9 83 -67 14 -13 27 -23 31 -23 3 0 18 -10 33 -22 15
-13 37 -29 48 -37 17 -12 19 -18 9 -30 -10 -14 -10 -14 5 -3 15 12 20 12 32
-1 9 -8 29 -21 46 -29 16 -7 30 -16 30 -20 0 -5 6 -8 13 -8 7 0 22 -8 33 -18
11 -9 26 -18 34 -20 8 -2 18 -8 21 -14 3 -5 9 -9 13 -9 20 3 26 0 21 -9 -4 -6
-3 -10 2 -9 26 4 34 -2 28 -23 -7 -23 -7 -23 10 -3 11 14 18 16 21 7 3 -6 10
-10 15 -6 5 3 9 0 9 -5 0 -6 3 -10 8 -9 13 4 102 -34 97 -42 -3 -5 4 -6 15 -3
11 3 20 1 20 -4 0 -5 6 -10 13 -11 45 -3 80 -19 72 -33 -4 -5 -1 -9 4 -9 6 0
11 5 11 11 0 8 6 7 17 -2 9 -8 18 -13 20 -11 8 6 34 1 30 -5 -3 -5 7 -9 21 -9
44 -2 72 -8 72 -14 0 -3 10 -6 21 -7 12 -1 31 -10 42 -20 21 -17 21 -17 7 1
-16 21 -18 21 50 0 14 -4 34 -8 45 -8 14 -1 19 -7 17 -21 -2 -16 -1 -17 7 -5
11 17 51 23 51 7 0 -5 7 -4 15 3 8 7 15 9 15 4 0 -5 17 -9 37 -8 45 1 65 -5
58 -16 -3 -5 -1 -12 5 -15 6 -4 9 -1 8 6 -4 16 63 20 74 4 5 -6 8 -6 8 3 0 6
5 12 11 12 5 0 7 -4 4 -10 -4 -7 2 -7 18 -1 14 6 27 7 30 4 8 -7 106 -9 101
-2 -2 4 28 5 66 4 38 -1 68 1 65 5 -2 4 2 7 10 7 8 0 12 -3 10 -7 -2 -4 2 -7
10 -7 8 0 12 4 9 9 -3 4 10 9 28 10 68 3 85 5 98 13 9 6 11 4 5 -6 -8 -12 -6
-12 8 0 9 7 17 10 17 6 0 -4 6 -3 13 2 6 5 22 8 35 7 12 0 22 2 22 6 0 4 6 7
13 7 6 0 23 3 36 7 15 6 21 5 17 -2 -3 -6 -1 -14 5 -18 7 -4 9 -3 6 3 -4 6 0
17 9 24 12 10 20 10 34 1 17 -10 18 -9 13 6 -3 9 -3 14 1 10 4 -3 37 5 73 18
35 13 69 21 75 18 7 -5 8 -2 3 6 -6 10 -1 12 18 8 15 -3 24 -1 21 3 -3 5 0 9
6 9 6 0 40 14 76 31 37 17 73 28 81 25 8 -3 11 -1 8 4 -7 12 55 41 69 33 5 -4
6 -1 2 6 -4 6 0 14 11 17 10 3 30 12 46 20 15 8 32 12 37 9 6 -4 9 -1 8 7 -2
7 5 12 15 11 10 0 16 2 13 5 -7 6 36 38 47 34 4 -1 7 3 7 9 0 5 5 7 10 4 6 -3
10 -2 10 3 0 6 15 19 32 30 24 16 35 18 41 9 6 -8 7 -6 4 5 -6 18 37 53 54 43
5 -4 9 -3 8 2 -3 17 1 36 7 30 3 -3 18 5 32 18 14 13 29 22 34 19 4 -3 8 2 8
10 0 8 7 19 15 23 19 11 195 182 195 190 0 3 15 21 34 39 19 18 31 36 28 39
-3 3 4 8 16 12 12 3 20 9 17 13 -3 4 7 20 20 34 14 15 25 31 25 37 0 5 5 9 12
9 6 0 8 3 5 7 -4 3 5 16 18 29 14 13 24 25 23 26 -5 7 36 67 43 62 4 -2 11 1
15 7 4 8 3 9 -4 5 -17 -10 -15 -2 9 38 12 20 26 36 32 36 6 0 7 3 4 6 -7 7 31
84 46 95 5 3 8 8 6 10 -6 11 14 48 23 43 7 -4 8 -2 4 5 -4 6 -2 18 4 26 7 8
10 15 6 15 -3 0 3 16 14 35 11 20 20 42 20 50 0 8 4 15 10 15 5 0 9 3 9 8 -4
24 2 42 13 36 7 -4 8 -3 4 4 -6 11 41 181 53 192 3 3 7 23 9 45 2 22 9 43 15
47 9 6 9 8 -1 8 -7 0 -10 4 -7 10 3 5 8 19 11 30 2 11 6 30 9 41 2 12 7 47 10
78 9 77 13 99 20 111 3 5 1 10 -5 10 -7 0 -8 6 -2 18 5 9 7 23 4 31 -2 7 2 17
9 22 8 5 10 9 4 9 -6 0 -10 54 -9 143 0 78 -2 147 -5 152 -3 6 -6 19 -7 30 -4
71 -20 180 -34 235 -5 19 -12 50 -15 69 -3 19 -8 37 -10 41 -2 3 -6 18 -9 32
-5 29 -61 197 -82 246 -36 84 -49 111 -74 162 -33 69 -127 229 -157 269 -141
190 -137 185 -273 322 -63 63 -158 148 -210 187 -52 40 -100 77 -107 82 -7 6
-17 10 -23 10 -5 0 -10 5 -10 10 0 6 -4 10 -9 10 -5 0 -38 18 -73 39 -91 55
-252 134 -328 161 -36 13 -69 26 -75 30 -11 8 -220 66 -270 75 -212 40 -283
48 -468 49 -76 1 -139 1 -140 0z"/>
<path d="M4350 1176 c0 -2 8 -10 18 -17 15 -13 16 -12 3 4 -13 16 -21 21 -21
13z"/>
<path d="M4135 940 c3 -5 8 -10 11 -10 2 0 4 5 4 10 0 6 -5 10 -11 10 -5 0 -7
-4 -4 -10z"/>
<path d="M996 907 c3 -10 9 -15 12 -12 3 3 0 11 -7 18 -10 9 -11 8 -5 -6z"/>
<path d="M1116 778 c3 -4 11 -5 19 -1 21 7 19 12 -4 10 -11 0 -18 -5 -15 -9z"/>
<path d="M1270 656 c0 -2 8 -10 18 -17 15 -13 16 -12 3 4 -13 16 -21 21 -21
13z"/>
<path d="M3796 633 c-6 -14 -5 -15 5 -6 7 7 10 15 7 18 -3 3 -9 -2 -12 -12z"/>
<path d="M1630 496 c0 -2 8 -10 18 -17 15 -13 16 -12 3 4 -13 16 -21 21 -21
13z"/>
<path d="M3470 496 c0 -2 8 -10 18 -17 15 -13 16 -12 3 4 -13 16 -21 21 -21
13z"/>
<path d="M1735 421 c-3 -5 -2 -12 3 -15 5 -3 9 1 9 9 0 17 -3 19 -12 6z"/>
<path d="M1796 418 c3 -5 10 -6 15 -3 13 9 11 12 -6 12 -8 0 -12 -4 -9 -9z"/>
<path d="M1846 378 c3 -5 10 -6 15 -3 13 9 11 12 -6 12 -8 0 -12 -4 -9 -9z"/>
<path d="M2956 313 c-6 -14 -5 -15 5 -6 7 7 10 15 7 18 -3 3 -9 -2 -12 -12z"/>
<path d="M2333 305 c0 -8 4 -12 9 -9 5 3 6 10 3 15 -9 13 -12 11 -12 -6z"/>
<path d="M2255 300 c3 -5 8 -10 11 -10 2 0 4 5 4 10 0 6 -5 10 -11 10 -5 0 -7
-4 -4 -10z"/>
<path d="M2520 280 c-9 -6 -10 -10 -3 -10 6 0 15 5 18 10 8 12 4 12 -15 0z"/>
<path d="M2690 279 c0 -5 5 -7 10 -4 6 3 10 8 10 11 0 2 -4 4 -10 4 -5 0 -10
-5 -10 -11z"/>
<path d="M2750 280 c0 -5 5 -10 11 -10 5 0 7 5 4 10 -3 6 -8 10 -11 10 -2 0
-4 -4 -4 -10z"/>
</g>
</svg>
